<?xml version="1.0" encoding="UTF-8"?>
<svg id="_レイヤー_2" data-name="レイヤー 2" xmlns="http://www.w3.org/2000/svg" viewBox="0 0 488.95 81.84">
  <defs>
    <style>
      .cls-1 {
        fill: #fff;
      }

      .cls-2 {
        fill: #465941;
      }
    </style>
  </defs>
  <g id="_レイヤー_1-2" data-name="レイヤー 1">
    <g>
      <path class="cls-1" d="M69.19,67.65c-3.74,5.06-8.07,8.69-12.98,10.89-4.91,2.2-10.23,3.3-15.95,3.3s-11.39-1.01-16.33-3.03c-4.95-2.02-9.19-4.84-12.71-8.47s-6.27-7.96-8.25-12.98c-1.98-5.02-2.97-10.5-2.97-16.44s.99-11.4,2.97-16.39c1.98-4.99,4.73-9.29,8.25-12.92s7.75-6.47,12.71-8.52c4.95-2.05,10.4-3.08,16.33-3.08,5.28,0,10.21.93,14.79,2.8,4.58,1.87,8.6,5,12.04,9.41l-5.94,4.95c-2.42-3.67-5.52-6.34-9.29-8.03-3.78-1.69-7.65-2.53-11.6-2.53-5.06,0-9.62.88-13.7,2.64-4.07,1.76-7.53,4.18-10.4,7.26-2.86,3.08-5.06,6.71-6.6,10.89s-2.31,8.69-2.31,13.53.77,9.35,2.31,13.53c1.54,4.18,3.74,7.81,6.6,10.89,2.86,3.08,6.33,5.5,10.4,7.26,4.07,1.76,8.64,2.64,13.7,2.64,1.98,0,4.03-.24,6.16-.71,2.13-.48,4.2-1.21,6.22-2.2,2.02-.99,3.94-2.24,5.77-3.74,1.83-1.5,3.45-3.32,4.84-5.45l5.94,4.51Z"/>
      <path class="cls-1" d="M107.25,1.98h7.26v77.88h-7.26V1.98Z"/>
      <path class="cls-1" d="M160.6,1.98h20.46c1.03,0,2.42.04,4.18.11,1.76.07,3.67.29,5.72.66,2.05.37,4.14.95,6.27,1.76,2.13.81,4.03,1.98,5.72,3.52,1.69,1.54,3.08,3.48,4.18,5.83,1.1,2.35,1.65,5.21,1.65,8.58,0,3.74-.64,6.82-1.92,9.24-1.28,2.42-2.9,4.38-4.84,5.88-1.94,1.5-4.09,2.62-6.43,3.36-2.35.73-4.58,1.25-6.71,1.54l22.66,37.4h-8.25l-21.89-36.96h-13.53v36.96h-7.26V1.98ZM167.86,36.3h15.4c3.81,0,6.91-.48,9.29-1.43,2.38-.95,4.24-2.13,5.55-3.52,1.32-1.39,2.22-2.9,2.7-4.51.48-1.61.71-3.08.71-4.4s-.24-2.79-.71-4.4c-.48-1.61-1.38-3.12-2.7-4.51-1.32-1.39-3.17-2.57-5.55-3.52-2.38-.95-5.48-1.43-9.29-1.43h-15.4v27.72Z"/>
      <path class="cls-2" d="M314.71,67.65c-3.74,5.06-8.07,8.69-12.98,10.89-4.91,2.2-10.23,3.3-15.95,3.3s-11.38-1.01-16.33-3.03c-4.95-2.02-9.19-4.84-12.71-8.47-3.52-3.63-6.27-7.96-8.25-12.98-1.98-5.02-2.97-10.5-2.97-16.44s.99-11.4,2.97-16.39c1.98-4.99,4.73-9.29,8.25-12.92,3.52-3.63,7.75-6.47,12.71-8.52,4.95-2.05,10.39-3.08,16.33-3.08,5.28,0,10.21.93,14.79,2.8,4.58,1.87,8.6,5,12.04,9.41l-5.94,4.95c-2.42-3.67-5.52-6.34-9.29-8.03-3.78-1.69-7.64-2.53-11.6-2.53-5.06,0-9.62.88-13.7,2.64-4.07,1.76-7.54,4.18-10.39,7.26-2.86,3.08-5.06,6.71-6.6,10.89s-2.31,8.69-2.31,13.53.77,9.35,2.31,13.53c1.54,4.18,3.74,7.81,6.6,10.89,2.86,3.08,6.33,5.5,10.39,7.26,4.07,1.76,8.63,2.64,13.7,2.64,1.98,0,4.03-.24,6.16-.71,2.13-.48,4.2-1.21,6.21-2.2,2.02-.99,3.94-2.24,5.77-3.74,1.83-1.5,3.45-3.32,4.84-5.45l5.94,4.51Z"/>
      <path class="cls-1" d="M352.77,1.98h7.26v71.28h36.3v6.6h-43.56V1.98Z"/>
      <path class="cls-1" d="M451.22,38.94L424.6,1.98h8.58l22.44,31.68,22.11-31.68h8.69l-26.4,36.96,28.93,40.92h-9.02l-24.64-35.2-24.64,35.2h-8.69l29.26-40.92Z"/>
    </g>
  </g>
</svg>